<svg id="レイヤー_1" data-name="レイヤー 1" xmlns="http://www.w3.org/2000/svg" xmlns:xlink="http://www.w3.org/1999/xlink" viewBox="0 0 112.5 31.35"><defs><style>.cls-1{fill:none;}.cls-2{clip-path:url(#clip-path);}.cls-3{fill:#f08300;}</style><clipPath id="clip-path"><rect class="cls-1" width="112.5" height="31.35"/></clipPath></defs><title>logo</title><g class="cls-2"><path d="M77.1,15.65l-1.87-3.52A2.18,2.18,0,0,0,76.73,10h0a2.18,2.18,0,0,0-1.5-2.14,7.29,7.29,0,0,0-1.71-.16H71.75v8h1.53V11.56l2.16,4.09Zm-2.34-4.93a5,5,0,0,1-1.1.1h-.38V9.17h.23a6.26,6.26,0,0,1,1.25.1.78.78,0,0,1,0,1.46"/></g><g class="cls-2"><polygon points="84.92 7.7 89.25 7.7 89.25 9.18 86.42 9.18 86.42 10.82 88.84 10.82 88.84 12.28 86.42 12.28 86.42 14.17 89.34 14.17 89.34 15.65 84.92 15.65 84.92 7.7"/></g><g class="cls-2"><path d="M69.23,15.65h1.52l-2.28-8h-2l-2.28,8h1.52l.72-2.52h2.06Zm-2.36-4,.61-2.12.61,2.12Z"/></g><g class="cls-2"><polygon points="60.84 7.7 59.65 10.84 58.44 7.7 56.13 7.7 56.13 15.66 57.66 15.66 57.66 9.61 59.65 14.81 61.63 9.61 61.63 15.66 63.16 15.66 63.16 7.7 60.84 7.7"/></g><g class="cls-2"><polygon points="83.96 15.66 81.34 11.25 83.7 7.7 82.01 7.7 79.84 10.96 79.84 7.7 78.31 7.7 78.31 15.66 79.84 15.66 79.84 11.57 82.27 15.66 83.96 15.66"/></g><g class="cls-2"><polygon points="90.43 7.7 95.19 7.7 95.19 9.19 93.58 9.19 93.58 15.65 92.04 15.65 92.04 9.19 90.43 9.19 90.43 7.7"/></g><g class="cls-2"><path d="M90.49,19.58a7.29,7.29,0,0,0-1.71-.16H87.25v8h1.52V24h0a7.29,7.29,0,0,0,1.71-.16,2.28,2.28,0,0,0,0-4.28M90,22.45a6.26,6.26,0,0,1-1.25.09V20.89A6.26,6.26,0,0,1,90,21a.78.78,0,0,1,0,1.46"/></g><g class="cls-2"><path d="M86.08,27.37l-1.87-3.51a2.28,2.28,0,0,0,0-4.28,7.28,7.28,0,0,0-1.71-.16H80.73v8h1.53V23.28l2.16,4.09h1.66Zm-2.34-4.93a5,5,0,0,1-1.1.09h-.38V20.89h.23a6.26,6.26,0,0,1,1.25.09.78.78,0,0,1,0,1.46"/></g><g class="cls-2"><path d="M98.45,27.37l-1.87-3.51a2.28,2.28,0,0,0,0-4.28,7.29,7.29,0,0,0-1.71-.16H93.1v8h1.53V23.28l2.16,4.09h1.66Zm-2.34-4.93a5,5,0,0,1-1.1.09h-.38V20.89h.23a6.26,6.26,0,0,1,1.25.09.78.78,0,0,1,0,1.46"/></g><g class="cls-2"><path d="M106.17,23.5q-.18-.19-1.05-.91a10.19,10.19,0,0,1-1.11-1,.61.61,0,0,1-.14-.38.46.46,0,0,1,.19-.36.73.73,0,0,1,.49-.16,1.55,1.55,0,0,1,1.17.77l1.06-1.05a4,4,0,0,0-1.06-.89,2.44,2.44,0,0,0-1.13-.28,2.19,2.19,0,0,0-1.56.59,1.88,1.88,0,0,0-.63,1.42,2.07,2.07,0,0,0,.38,1.15A8.94,8.94,0,0,0,104.45,24a5.74,5.74,0,0,1,.88.83.9.9,0,0,1,.2.54.68.68,0,0,1-.27.52,1,1,0,0,1-.65.23q-.75,0-1.32-1.06l-1.09,1.09a3,3,0,0,0,.9,1,2.63,2.63,0,0,0,1.48.42,2.47,2.47,0,0,0,1.77-.64,2.13,2.13,0,0,0,.68-1.62,2.23,2.23,0,0,0-.19-.93,3.15,3.15,0,0,0-.65-.89"/></g><g class="cls-2"><polygon points="56.13 19.41 60.46 19.41 60.46 20.9 57.63 20.9 57.63 22.54 60.06 22.54 60.06 24 57.63 24 57.63 25.89 60.55 25.89 60.55 27.37 56.13 27.37 56.13 19.41"/></g><g class="cls-2"><polygon points="74.92 19.41 79.25 19.41 79.25 20.9 76.42 20.9 76.42 22.54 78.85 22.54 78.85 24 76.42 24 76.42 25.89 79.34 25.89 79.34 27.37 74.92 27.37 74.92 19.41"/></g><g class="cls-2"><polygon points="108.08 19.41 112.41 19.41 112.41 20.9 109.58 20.9 109.58 22.54 112 22.54 112 24 109.58 24 109.58 25.89 112.5 25.89 112.5 27.37 108.08 27.37 108.08 19.41"/></g><g class="cls-2"><polygon points="61.95 19.41 63.4 19.41 66.33 24.65 66.33 19.41 67.85 19.41 67.85 27.37 66.39 27.37 63.47 22.15 63.47 27.37 61.95 27.37 61.95 19.41"/></g><g class="cls-2"><rect x="99.55" y="19.42" width="1.5" height="7.96"/></g><g class="cls-2"><polygon points="69.07 19.41 73.82 19.41 73.82 20.91 72.21 20.91 72.21 27.37 70.67 27.37 70.67 20.91 69.07 20.91 69.07 19.41"/></g><g class="cls-2"><polygon points="40.22 4.21 37.02 7.43 46.08 7.43 49.31 4.21 40.22 4.21"/></g><g class="cls-2"><polygon points="33.64 27.64 33.64 19.15 45.06 19.15 48.29 15.92 33.64 15.92 33.64 9.3 27.16 15.84 27.16 29.93 26.05 29.93 26.05 30.86 46.48 30.86 49.71 27.64 33.64 27.64"/></g><g class="cls-2"><polygon points="3.69 27.63 10.18 21.09 10.18 9.46 15.51 15.71 17.92 13.28 10.18 4.21 2.65 4.21 2.65 5.14 3.69 5.14 3.69 27.63"/></g><g class="cls-2"><polygon class="cls-3" points="42.86 0 31.08 0 0 31.35 11.77 31.35 42.86 0"/></g></svg>