<?xml version="1.0" encoding="utf-8"?>
<!-- Generator: Adobe Illustrator 22.1.0, SVG Export Plug-In . SVG Version: 6.00 Build 0)  -->
<svg version="1.1" id="レイヤー_1" xmlns="http://www.w3.org/2000/svg" xmlns:xlink="http://www.w3.org/1999/xlink" x="0px"
	 y="0px" viewBox="0 0 58 58" style="enable-background:new 0 0 58 58;" xml:space="preserve">
<style type="text/css">
	.st0{fill:#FFFFFF;}
	.st1{fill:none;stroke:#231815;stroke-width:0.6;}
	.st2{fill:#231815;}
	.st3{clip-path:url(#SVGID_2_);}
	.st4{fill:url(#SVGID_3_);}
	.st5{clip-path:url(#SVGID_5_);}
	.st6{fill:url(#SVGID_6_);}
</style>
<title>アートボード 2</title>
<path class="st0" d="M57.4,29c0,15.7-12.7,28.3-28.4,28.3S0.7,44.7,0.7,29C0.7,13.3,13.3,0.7,29,0.7c0,0,0,0,0,0
	C44.7,0.7,57.4,13.3,57.4,29"/>
<path class="st1" d="M57.4,29c0,15.7-12.7,28.3-28.4,28.3S0.7,44.7,0.7,29C0.7,13.3,13.3,0.7,29,0.7c0,0,0,0,0,0
	C44.7,0.7,57.4,13.3,57.4,29z"/>
<path class="st0" d="M48.8,29c0,11-8.9,19.9-19.8,19.9C18,48.9,9.2,40,9.1,29C9.1,18.1,18,9.2,29,9.2c0,0,0,0,0,0
	C40,9.2,48.8,18,48.8,29L48.8,29"/>
<path class="st1" d="M48.8,29c0,11-8.9,19.9-19.8,19.9C18,48.9,9.2,40,9.1,29C9.1,18.1,18,9.2,29,9.2c0,0,0,0,0,0
	C40,9.2,48.8,18,48.8,29L48.8,29z"/>
<path class="st2" d="M21.3,44.3c-0.8,0-1.5-0.3-2-0.8l1.2-1.2c0.2,0.3,0.5,0.4,0.8,0.4c0.5,0.1,0.9-0.3,1-0.8c0-0.1,0-0.1,0-0.2
	v-4.9h1.8v4.9c0,1.4-1.1,2.6-2.5,2.7C21.5,44.4,21.4,44.4,21.3,44.3"/>
<path class="st2" d="M29.1,41.6h-1.1v2.7h-1.8v-7.4h2.9c1.3-0.1,2.5,0.9,2.5,2.2c0.1,1.3-0.9,2.5-2.2,2.5
	C29.3,41.6,29.2,41.6,29.1,41.6 M29,38.5h-1V40h1c0.4,0,0.8-0.3,0.8-0.8S29.4,38.5,29,38.5"/>
<polygon class="st2" points="36.6,44.2 35.4,42 34.2,44.2 32.1,44.2 34.4,40.4 32.3,36.8 34.3,36.8 35.4,38.9 36.5,36.8 38.6,36.8 
	36.4,40.4 38.7,44.2 "/>
<g>
	<defs>
		<path id="SVGID_1_" d="M19.2,32.3l3.6,1.9V18.6l-3.6-1.9V32.3z M24.5,31.2l3.6,1.9V17.4l-3.6-1.9V31.2z M29.8,30l3.6,1.9V16.2
			l-3.6-1.9L29.8,30z M35.1,28.8l3.7,1.9V15l-3.7-1.9V28.8z"/>
	</defs>
	<clipPath id="SVGID_2_">
		<use xlink:href="#SVGID_1_"  style="overflow:visible;"/>
	</clipPath>
	<g class="st3">
		
			<radialGradient id="SVGID_3_" cx="-554.8882" cy="25.7326" r="1" gradientTransform="matrix(31.1 0 0 31.1 17275.0449 -788.8151)" gradientUnits="userSpaceOnUse">
			<stop  offset="0" style="stop-color:#EB6120"/>
			<stop  offset="0.65" style="stop-color:#EB6120"/>
			<stop  offset="0.75" style="stop-color:#E60012"/>
			<stop  offset="1" style="stop-color:#E60012"/>
		</radialGradient>
		<rect x="19.2" y="13.1" class="st4" width="19.6" height="21.1"/>
	</g>
</g>
<g>
	<defs>
		<path id="SVGID_4_" d="M19.2,28.6h0.1c1.2,0,2.3-0.1,3.5-0.3v-9.7l-3.6-1.9L19.2,28.6z M24.5,28c1.3-0.3,2.5-0.8,3.6-1.3v-9.3
			l-3.6-1.9V28z M29.8,25.8c1.3-0.8,2.5-1.7,3.6-2.7v-6.8l-3.6-1.9L29.8,25.8z M35.1,21.4c1.6-1.9,2.8-4,3.7-6.3l-3.7-1.9V21.4z"/>
	</defs>
	<clipPath id="SVGID_5_">
		<use xlink:href="#SVGID_4_"  style="overflow:visible;"/>
	</clipPath>
	<g class="st5">
		
			<radialGradient id="SVGID_6_" cx="-547.048" cy="31.4546" r="1" gradientTransform="matrix(20.66 0 0 20.66 11321.1602 -640.8007)" gradientUnits="userSpaceOnUse">
			<stop  offset="0" style="stop-color:#E60012"/>
			<stop  offset="0.6" style="stop-color:#E60012"/>
			<stop  offset="0.71" style="stop-color:#BC000B"/>
			<stop  offset="0.84" style="stop-color:#940005"/>
			<stop  offset="0.94" style="stop-color:#7C0001"/>
			<stop  offset="1" style="stop-color:#730000"/>
		</radialGradient>
		<rect x="19.2" y="13.1" class="st6" width="19.6" height="15.5"/>
	</g>
</g>
<path class="st2" d="M15.7,8l1.9-1l0.1,0.2l-1.3,0.7l1,2l0.5-0.3l-0.1-0.1l0.6-0.3c-0.3,0.7-0.7,1.4-1.3,1.9l0.5,0.4
	c0.3-0.4,0.6-0.7,0.8-1.1c0.2-0.2,0.3-0.5,0.4-0.8l0.6,1.2l0.5-0.3l-0.6-1.2c0.8,0.2,1.6,0.2,2.3,0.1l-0.1-0.7
	c-0.7,0.2-1.5,0.2-2.2,0.1L20,8.4l0,0.1l0.5-0.3l-1-2l-1.3,0.7l-0.1-0.2l1.9-1l-0.2-0.5l-1.9,1l-0.1-0.3c0.1-0.1,0-0.2-0.1-0.1
	L17.1,6l0.2,0.4l-1.9,1L15.7,8z M19.7,7.7l0.1,0.2L19,8.3l-0.1-0.2L19.7,7.7z M19.3,7l0.1,0.2l-0.8,0.4l-0.2-0.3L19.3,7z M18.3,8.4
	l0.1,0.2L17.6,9l-0.1-0.2L18.3,8.4z M17.9,7.7L18,7.9l-0.8,0.4L17.1,8L17.9,7.7z"/>
<path class="st2" d="M25.4,4.4l0.6,3.4l-0.4,0.1l-0.5-2.5c0.1-0.1,0.1-0.2-0.1-0.2l-0.5,0.1L25.1,8L24.7,8l0.1,0.6l3-0.6l-0.1-0.6
	l-1.1,0.2l-0.3-1.5L27.2,6l-0.1-0.6l-0.9,0.2L26,4.2L26.9,4l-0.1-0.6L24.1,4l0.1,0.6L25.4,4.4z"/>
<path class="st2" d="M23.6,8.9l0-0.2l0.6-0.1v0.2l0.6-0.1l-0.4-1.9l-1.8,0.3l0.4,1.9L23.6,8.9z M23.9,7.4L24,8l-0.6,0.1l-0.1-0.6
	L23.9,7.4z"/>
<rect x="22.2" y="3.9" transform="matrix(0.9844 -0.1757 0.1757 0.9844 -0.3726 4.1054)" class="st2" width="1.5" height="0.6"/>
<polygon class="st2" points="24.2,5 24.1,4.5 22,4.8 22.1,5.4 "/>
<rect x="22.7" y="6.2" transform="matrix(0.9844 -0.1757 0.1757 0.9844 -0.7707 4.2131)" class="st2" width="1.5" height="0.6"/>
<polygon class="st2" points="24,5.3 22.5,5.6 22.6,6.1 24.1,5.9 "/>
<path class="st2" d="M33.8,7.6l-2.2-0.2l0.2-1.8l1.7,0.2l0.1-0.7l-1.7-0.2l0.1-1.2c0,0,0.1,0,0.1-0.1c0-0.1,0-0.1-0.2-0.1l-0.6-0.1
	l-0.4,3.8l-2-0.2l-0.1,0.7l4.9,0.5L33.8,7.6z"/>
<path class="st2" d="M39.2,8.9L39.2,8.9l-0.4,0.8c0,0.1-0.1,0.1-0.1,0.1c0,0-0.1,0-0.1,0l-0.4-0.2L38,10.3l0.5,0.2
	c0.3,0.1,0.5,0.1,0.6-0.1c0,0,0.1-0.1,0.1-0.1l0.8-1.6L38.2,8l0.2-0.1l1.9,0.8l0.2-0.5l-3.1-1.3l-0.2,0.5l0.7,0.3
	c-0.1,0.1-0.3,0.2-0.4,0.2c-0.1,0-0.2,0.1-0.4,0.1V7.6h-0.5L37,6.4l0.5,0.2L37.7,6l-0.5-0.2l0.4-1c0.1,0,0.1-0.1,0-0.2l-0.5-0.2
	l-0.5,1.2L36,5.4l-0.2,0.5l0.6,0.3l-0.6,1.4l-0.8-0.1v0.6c0,0.2,0.1,0.2,0.2,0.1h1.4l0.1,0.4c0.2,0,0.3,0,0.5-0.1
	c0.2,0,0.3-0.1,0.5-0.1l0.2,0.1c-0.1,0.1-0.3,0.2-0.5,0.2c-0.3,0-0.6,0-0.8,0v0.5c0.3,0.1,0.6,0.1,0.9,0c0.3,0,0.6-0.2,0.8-0.4
	c0-0.1,0.1-0.1,0.1-0.2l0.2,0.1c-0.6,0.6-1.5,0.7-2.2,0.4l-0.1,0.6c0.8,0.2,1.6,0.2,2.3-0.2C38.8,9.3,39,9.1,39.2,8.9"/>
<path class="st2" d="M40,7.7L40.7,6L38.4,5l-0.7,1.7L40,7.7z M38.8,5.7l1.2,0.5l-0.1,0.2l-1.2-0.5L38.8,5.7z M38.5,6.4l1.2,0.5
	L39.6,7l-1.2-0.5L38.5,6.4z"/>
<polygon class="st2" points="44.8,14.9 47.7,12.2 48.3,12.9 48.7,12.6 47,10.7 46.6,11.1 47.3,11.8 44.4,14.5 "/>
<path class="st2" d="M46.8,16.7c-0.1,0.4,0,0.7,0.2,1.1c0.2,0.3,0.5,0.5,0.9,0.6c0.7,0.1,1.3-0.1,1.9-0.5c0.6-0.3,1.1-0.8,1.3-1.5
	c0.1-0.4,0-0.8-0.2-1.1c-0.2-0.3-0.5-0.5-0.9-0.6c-0.7-0.1-1.3,0.1-1.9,0.5C47.4,15.5,47,16.1,46.8,16.7 M49.8,15.4
	c0.2,0,0.4,0.2,0.5,0.3c0.1,0.2,0.1,0.4,0.1,0.6c-0.1,0.3-0.4,0.7-1,1.1c-0.4,0.3-0.9,0.5-1.4,0.5c-0.4-0.1-0.7-0.5-0.6-0.9
	c0,0,0,0,0-0.1c0.1-0.4,0.4-0.7,1-1.1C48.7,15.5,49.3,15.3,49.8,15.4"/>
<polygon class="st2" points="48.5,20.7 50.2,20 50.8,20.3 49.1,22.3 49.4,22.9 51.4,20.5 53.5,21.2 53.2,20.6 50.9,19.8 52.7,19.1 
	52.5,18.6 48.3,20.1 "/>
<polygon class="st2" points="49.9,25.2 49.9,25.8 52,25.5 54.5,26.3 54.4,25.6 52.6,25.1 54.2,24 54.1,23.4 51.9,24.9 "/>
<path class="st2" d="M54.3,28.8c-0.5-0.4-1.2-0.7-1.8-0.6c-0.7-0.1-1.3,0.1-1.9,0.5c-0.6,0.5-0.6,1.4-0.1,1.9c0,0,0,0,0,0.1
	c0.5,0.4,1.2,0.7,1.8,0.6c0.7,0.1,1.3-0.1,1.9-0.5c0.3-0.3,0.4-0.6,0.4-1C54.7,29.5,54.5,29.1,54.3,28.8 M53.8,30.4
	c-0.9,0.5-2,0.4-2.9-0.1c-0.2-0.1-0.2-0.4-0.2-0.6c0-0.2,0.1-0.4,0.2-0.5c0.9-0.5,2-0.4,2.9,0.1c0.1,0.1,0.2,0.3,0.2,0.6
	C54.1,30,54,30.2,53.8,30.4"/>
<path class="st2" d="M52.6,35.8c-0.2-0.1-0.5-0.1-0.8,0c-0.3,0.2-0.5,0.4-0.7,0.6c-0.5,0.5-0.9,0.7-1.2,0.5
	c-0.3-0.1-0.5-0.4-0.5-0.7c0-0.1,0-0.1,0.1-0.2c0.2-0.5,0.6-0.6,1.3-0.3l0.2-0.6c-0.4-0.2-0.9-0.2-1.3-0.1c-0.4,0.1-0.6,0.4-0.7,0.8
	c-0.1,0.3-0.1,0.7,0,1c0.1,0.3,0.4,0.5,0.7,0.6c0.6,0.2,1.3-0.1,1.7-0.6c0.4-0.4,0.8-0.6,1-0.5c0.1,0,0.2,0.2,0.3,0.3
	c0.1,0.2,0.1,0.3,0,0.5c-0.1,0.2-0.2,0.3-0.3,0.3c-0.3,0.1-0.5,0.1-0.8,0L51.4,38c0.4,0.2,0.9,0.2,1.3,0c0.3-0.1,0.5-0.4,0.6-0.7
	c0.1-0.3,0.1-0.7,0-1C53.1,36.1,52.9,35.9,52.6,35.8"/>
<polygon class="st2" points="51.1,41 47.6,39.1 47.3,39.6 50.8,41.5 50.3,42.4 50.8,42.6 52,40.4 51.5,40.2 "/>
<path class="st2" d="M48,42.8c-0.5-0.5-1.1-0.8-1.8-0.8c-0.4,0-0.8,0.2-1,0.5c-0.2,0.3-0.3,0.6-0.3,1c0.1,0.7,0.5,1.2,1.1,1.6
	c0.5,0.5,1.1,0.8,1.8,0.8c0.4,0,0.7-0.2,1-0.5c0.2-0.3,0.3-0.6,0.3-1C48.9,43.7,48.5,43.2,48,42.8 M48.4,45.1
	c-0.1,0.2-0.3,0.2-0.5,0.3c-0.5,0-1-0.3-1.4-0.7c-0.6-0.5-0.9-0.9-0.9-1.2c0-0.2,0-0.4,0.2-0.6c0.1-0.2,0.3-0.3,0.5-0.3
	c0.5,0,1,0.3,1.4,0.7c0.6,0.5,0.9,0.9,0.9,1.2C48.5,44.7,48.5,44.9,48.4,45.1"/>
<path class="st2" d="M43.3,45.1c-0.3,0-0.6,0.1-0.9,0.3c-0.3,0.2-0.4,0.5-0.4,0.8c0,0.5,0.2,1,0.5,1.4l0.5-0.4
	c-0.3-0.3-0.4-0.6-0.4-1c0-0.2,0.1-0.3,0.2-0.4c0.1-0.1,0.3-0.2,0.5-0.2c0.5,0.1,1,0.5,1.3,0.9c0.4,0.4,0.6,0.9,0.6,1.4
	c0,0.2-0.1,0.4-0.2,0.5c-0.1,0.1-0.3,0.1-0.5,0.1c-0.3-0.1-0.6-0.3-0.8-0.5l-0.5,0.4c0.3,0.4,0.7,0.7,1.2,0.7c0.3,0,0.6-0.1,0.9-0.2
	c0.3-0.2,0.4-0.5,0.5-0.9c0-0.7-0.3-1.4-0.7-1.9C44.6,45.6,44,45.2,43.3,45.1"/>
<polygon class="st2" points="39.8,47.2 40.7,48.8 40.5,49.5 38.3,48 37.7,48.4 40.4,50 40,52.2 40.6,51.9 41.1,49.5 42,51.1 
	42.5,50.9 40.3,46.9 "/>
<polygon class="st2" points="31.6,50.1 31.7,50.6 33.7,50.2 34,51.8 32.3,52.1 32.4,52.6 34.1,52.3 34.3,53.6 32.5,53.9 32.6,54.4 
	35,54 34.2,49.6 "/>
<polygon class="st2" points="29.8,50.2 28.9,51.9 28,50.2 27.4,50.2 28.5,52.5 27.5,54.6 28.2,54.6 28.9,53.1 29.6,54.6 30.2,54.7 
	29.2,52.5 30.4,50.2 "/>
<path class="st2" d="M24.7,49.7c-0.3-0.1-0.6,0-0.9,0.2c-0.4,0.3-0.7,0.8-0.8,1.3l0.6,0.1c0-0.4,0.2-0.8,0.5-1
	c0.1-0.1,0.3-0.1,0.5-0.1c0.2,0,0.3,0.1,0.5,0.3c0.2,0.5,0.2,1.1,0.1,1.6c0,0.5-0.3,1-0.7,1.4c-0.2,0.1-0.3,0.1-0.5,0.1
	c-0.1,0-0.3-0.1-0.4-0.2c-0.2-0.3-0.2-0.7-0.1-1l-0.6-0.1c-0.1,0.5-0.1,1,0.2,1.4c0.2,0.3,0.4,0.5,0.8,0.5c0.3,0.1,0.7,0,1-0.2
	c0.6-0.4,0.9-1,1-1.7c0.2-0.7,0.1-1.4-0.2-2C25.4,50,25.1,49.8,24.7,49.7"/>
<polygon class="st2" points="21,50.9 19.6,50.4 20.4,48.3 19.9,48.1 18.2,52.3 18.7,52.5 19.4,50.8 20.8,51.4 20.1,53.1 20.6,53.3 
	22.3,49.1 21.8,48.9 "/>
<path class="st2" d="M18.2,47.2l-1.1,0.9l-1-0.6l0.4-1.3L16,45.8l-1.4,4.4l0.5,0.3l3.5-3L18.2,47.2z M15.5,49.6l0.5-1.5l0.7,0.5
	L15.5,49.6z"/>
<polygon class="st2" points="14.7,44.6 12.4,46.9 13.6,43.6 13.2,43.2 10.1,46.3 10.5,46.7 12.7,44.5 11.6,47.8 12,48.2 15.1,45 "/>
<path class="st2" d="M11.8,42c0.1-0.3,0-0.7-0.2-1c-0.2-0.3-0.5-0.5-0.9-0.5l0.3-0.3l-0.3-0.4l-2.1,1.4l0.9,1.3l0.4-0.3l-0.6-0.8
	l0.3-0.2c0.2-0.2,0.5-0.3,0.8-0.2c0.2,0,0.4,0.2,0.6,0.3c0.1,0.2,0.2,0.4,0.1,0.6c-0.2,0.5-0.5,0.9-1,1.2c-0.4,0.3-0.9,0.5-1.4,0.5
	c-0.2-0.1-0.4-0.2-0.5-0.3c-0.1-0.2-0.1-0.3-0.1-0.5c0.1-0.3,0.3-0.5,0.5-0.7l-0.4-0.5c-0.4,0.3-0.6,0.7-0.7,1.1
	c-0.1,0.3,0,0.7,0.2,1c0.2,0.3,0.6,0.5,0.9,0.6c0.7,0.1,1.3-0.1,1.8-0.6C11.2,43.2,11.6,42.7,11.8,42"/>
<polygon class="st2" points="9.1,36.4 8.6,36.6 9.4,38.4 8,39.1 7.3,37.5 6.8,37.7 7.5,39.3 6.3,39.8 5.6,38.1 5.1,38.3 6.1,40.5 
	10.1,38.7 "/>
<polygon class="st2" points="7.8,30.4 7.3,30.5 7.5,32.3 3.6,32.8 3.7,33.4 8.1,32.8 "/>
<rect x="5.3" y="26.6" transform="matrix(9.599216e-03 -1 1 9.599216e-03 -23.2567 34.1157)" class="st2" width="0.6" height="4.5"/>
<path class="st2" d="M4.5,26.8c0.3,0,0.5,0,0.8-0.2c0.2-0.2,0.4-0.4,0.6-0.7c0.4-0.5,0.7-0.8,1-0.8c0.3,0,0.6,0.3,0.6,0.6
	c0,0.1,0,0.1,0,0.2c-0.1,0.5-0.5,0.7-1.2,0.6l-0.1,0.6c0.4,0.1,0.9,0,1.3-0.2C7.8,26.7,8,26.4,8,26c0.1-0.4,0-0.7-0.2-1
	c-0.2-0.2-0.5-0.4-0.8-0.4c-0.7,0-1.3,0.3-1.6,0.9c-0.3,0.5-0.7,0.8-0.9,0.7c-0.1,0-0.2-0.1-0.3-0.2c-0.1-0.1-0.1-0.3-0.1-0.5
	c0-0.2,0.1-0.3,0.2-0.4c0.2-0.1,0.5-0.2,0.8-0.2l0.1-0.6c-0.4-0.1-0.9,0-1.2,0.2c-0.2,0.2-0.4,0.5-0.4,0.8c-0.1,0.3,0,0.7,0.2,0.9
	C4,26.6,4.2,26.7,4.5,26.8"/>
<polygon class="st2" points="5,21.5 8.8,22.7 9,22.2 5.2,21 5.5,20.1 5,19.9 4.2,22.3 4.7,22.4 "/>
<polygon class="st2" points="10.9,17.9 10.5,17.6 9.5,19.4 8.1,18.6 8.9,17.1 8.5,16.9 7.7,18.4 6.5,17.8 7.4,16.1 7,15.9 5.8,18 
	9.7,20.1 "/>
<path class="st2" d="M12.4,15.9c0.3-0.3,0.4-0.7,0.4-1.1c-0.2-0.6-0.6-1.2-1.1-1.5c-0.5-0.5-1.1-0.7-1.7-0.8c-0.4,0.1-0.8,0.3-1,0.6
	L8.2,14l3.5,2.8L12.4,15.9z M8.9,13.9l0.3-0.4c0.2-0.2,0.4-0.3,0.7-0.3c0.5,0.1,1,0.3,1.3,0.6c0.6,0.4,0.9,0.8,0.9,1.1
	c0,0.3,0,0.5-0.2,0.7L11.6,16L8.9,13.9z"/>
</svg>
